# xmcd
#
# Track frame offsets: 
#        150
#        4465
#        21570
#        37815
#        57325
#        75123
#        91640
#        115314
#        134802
#        152669
#        176674
#        191863
#        212084
#        234543
#        254381
#        270479
#        288521
#        312381
#        328779
#        345949
#
# Disc length: 4768 seconds
#
# Revision: 0
# Processed by: cddbd v1.5.2PL0 Copyright (c) Steve Scherf et al.
# Submitted via: ExactAudioCopy v0.99pb5
#
DISCID=1c129e14
DTITLE=Heilig - KAPITEL III
DYEAR=2009
DGENRE=Blues
TTITLE0=Vertreibung
TTITLE1=Apfebam
TTITLE2=Wos host g'macht letzte Nacht
TTITLE3=Aus und vorbei
TTITLE4=Mama
TTITLE5=Des liegt ned an mir
TTITLE6=Mehr von dir
TTITLE7=Tattoo
TTITLE8=Es war nur Sex
TTITLE9=Herzschmerz-Blues
TTITLE10=Des werd scho wieder
TTITLE11=Flügel
TTITLE12=Da Deifi in uns
TTITLE13=Olles nur glog'n
TTITLE14=Ka Engel
TTITLE15=Stör mi ned
TTITLE16=Lebendig begrob'n
TTITLE17=Wannst ma über'n Weg Lafst
TTITLE18=Irmi
TTITLE19=I geh nia ins Bett
EXTD=
EXTT0=
EXTT1=
EXTT2=
EXTT3=
EXTT4=
EXTT5=
EXTT6=
EXTT7=
EXTT8=
EXTT9=
EXTT10=
EXTT11=
EXTT12=
EXTT13=
EXTT14=
EXTT15=
EXTT16=
EXTT17=
EXTT18=
EXTT19=
PLAYORDER=
